<?xml version="1.0" encoding="UTF-8" standalone="no"?>
<svg width="512" height="512" viewBox="0 0 512 512" xmlns="http://www.w3.org/2000/svg" xmlns:svg="http://www.w3.org/2000/svg">
    <rect width="512" height="512" fill="black"/>
    <path d="M376.443 247V258.008H424.545C415.891 279.004 396.83 293.408 376.443 298.197V316.035H344.758C351.314 332.552 362.886 346.163 376.393 358.017H390.171V368.127H236.329V358.018H251.157C266.703 346.171 278.239 332.579 284.499 316.035H250.057V300.243C239.372 296.458 228.686 289.687 218 280.393C228.719 270.913 239.225 265.65 250.057 263.113V247.001H376.442L376.443 247Z" fill="#675AFB" />
    <path d="M205.296 158.663L222.61 150.869L252.806 180.541L264.354 218.6L237.674 230.606L221.223 203.84L125.018 247.158L118.221 232.076L214.426 188.775L205.296 158.663Z" fill="#675AFB"/>
    <path d="M 256 6.1875 C 253.21254 6.1875 250.42517 6.4797857 247.68359 7.0625 C 241.39173 8.3999118 235.96215 11.568397 224 18.474609 L 66.296875 109.52539 C 54.334814 116.43147 48.876431 119.54892 44.572266 124.32812 C 40.821188 128.49408 37.988012 133.40237 36.255859 138.73242 C 34.268179 144.85076 34.296875 151.1372 34.296875 164.94922 L 34.296875 347.05078 C 34.296875 360.8628 34.268175 367.14924 36.255859 373.26758 C 37.988012 378.59763 40.821188 383.50591 44.572266 387.67188 C 48.876431 392.45108 54.334814 395.56853 66.296875 402.47461 L 224 493.52539 C 235.96209 500.43137 241.39133 503.60048 247.68359 504.9375 C 253.16687 506.10318 258.83313 506.10318 264.31641 504.9375 C 270.60867 503.60048 276.03791 500.43137 288 493.52539 L 445.70312 402.47461 C 457.66433 395.56856 463.12316 392.45086 467.42773 387.67188 C 471.17888 383.50585 474.01175 378.5973 475.74414 373.26758 L 475.74609 373.26562 C 477.73239 367.14821 477.70315 360.86302 477.70312 347.05078 L 477.70312 164.94922 C 477.70312 151.13698 477.73242 144.85179 475.74609 138.73438 L 475.74414 138.73242 C 474.01175 133.4027 471.17888 128.49417 467.42773 124.32812 C 463.12316 119.54914 457.66436 116.43144 445.70312 109.52539 L 288 18.474609 C 276.03785 11.568397 270.60827 8.3999118 264.31641 7.0625 C 261.57483 6.4797857 258.78746 6.1875 256 6.1875 z M 255.76172 16.84375 C 257.85225 16.84375 259.94359 17.062915 262 17.5 C 266.18414 18.389386 270.82389 20.898841 282.76172 27.791016 L 307.53906 42.095703 C 298.24641 40.664499 289.09889 40.949533 281.63477 44.691406 C 257.42977 56.825906 239.89539 80.231708 249.15039 105.47461 C 259.02239 132.40061 305.08613 103.20864 319.70312 127.93164 C 330.77013 146.64964 309.69013 164.1758 319.70312 183.4668 C 324.61313 192.9278 332.86389 207.139 347.08789 207.5 C 366.81089 208 351.16817 168.41119 371.45117 163.24219 C 401.32517 155.63019 398.12586 231.94686 426.29688 219.50586 C 442.01788 212.56286 462.87542 187.62519 457.23242 163.24219 C 453.15842 145.63819 433.89586 149.41603 426.29688 128.58203 C 423.46155 120.80862 418.64259 111.37033 414.52734 103.86523 L 440.46484 118.8418 C 452.40162 125.73374 456.89635 128.49678 459.75977 131.67578 C 462.57261 134.79974 464.69649 138.4822 465.99609 142.48047 C 467.31729 146.55081 467.46484 151.82362 467.46484 165.60547 L 467.46484 254.30664 C 464.01172 257.30544 451.56819 268.48008 446.29883 278.77344 C 434.97183 300.90144 452.10583 318.25869 446.29883 342.42969 C 441.80183 361.15369 415.01287 371.896 426.29688 387.5 C 428.87918 391.07081 433.78159 394.06061 437.70898 396.0625 L 282.76172 485.52148 C 270.82385 492.41349 266.18373 494.92352 262 495.8125 L 261.99805 495.8125 C 257.88532 496.68682 253.63812 496.68682 249.52539 495.8125 L 249.52344 495.8125 C 245.33981 494.92352 240.6996 492.41349 228.76172 485.52148 L 71.058594 394.4707 C 59.122294 387.5795 54.628495 384.8151 51.765625 381.63672 C 48.953105 378.51313 46.826634 374.83126 45.527344 370.83398 L 45.527344 370.83203 C 44.205724 366.76261 44.058594 361.4891 44.058594 347.70703 L 44.058594 271.06836 C 50.137494 263.75115 61.126235 250.0047 67.171875 239.10156 C 77.227875 220.96556 69.866947 202.97 85.623047 189.375 C 97.620847 179.024 115.87748 189.383 124.02148 175.84766 C 134.15248 159.01066 96.748637 146.94128 105.24023 129.23828 C 115.00723 108.87728 140.32951 135.99405 163.10352 136.12305 C 183.85151 136.24105 169.2935 108.83225 185.4375 95.935547 C 202.8885 81.99495 210.7373 85.958106 215.82031 71.753906 C 219.63322 61.100788 213.23946 44.81265 210.36133 38.392578 L 228.76172 27.791016 C 240.69956 20.898841 245.3393 18.389386 249.52344 17.5 C 251.57984 17.062915 253.67119 16.84375 255.76172 16.84375 z M 158.77734 278.17383 C 144.3529 277.74301 132.69242 291.088 124.25977 297.72266 C 114.95377 305.04366 101.0784 283.25878 88.220703 287.67578 C 64.535703 295.81178 88.2678 360.7305 111.0625 371.0625 C 129.4755 379.4075 118.17809 339.61466 131.87109 324.84766 C 144.63709 311.08066 187.02933 322.95992 189.73633 313.29492 C 192.44333 303.62992 179.9688 282.65444 163.3418 278.77344 C 161.79098 278.41138 160.26953 278.2184 158.77734 278.17383 z M 200.86328 365.18164 C 197.55263 365.2513 193.93558 366.97069 189.73633 371.0625 C 176.78633 383.6805 168.60231 400.73153 178.57031 415.76953 C 189.93831 432.92253 213.03648 406.73753 231.64648 415.76953 C 252.68848 425.98253 241.78275 465.18505 265.21875 464.99805 C 288.52775 464.81305 283.02962 431.16553 300.39062 415.76953 C 313.66863 403.99453 339.04689 421.97456 347.08789 406.22656 C 359.85389 381.22456 277.24039 402.13941 249.15039 398.69141 C 223.80852 395.58034 215.20943 364.87978 200.86328 365.18164 z" style="fill:url(#radial)" />
    <defs>
        <radialGradient id="radial" r="1" gradientUnits="userSpaceOnUse" cx="0" cy="0" gradientTransform="translate(256 256) scale(204.8 204.8)">
            <stop stop-color="#675AFB"/>
            <stop offset="1" stop-color="#1EB0A5"/>
        </radialGradient>
    </defs>
</svg>
